<svg width="150" height="150" viewBox="0 0 150 150" fill="none" xmlns="http://www.w3.org/2000/svg">
<rect width="150" height="150" fill="white"/>
<path d="M62.8138 36.304H48.2858V74H39.5178V36.304H24.9898V28.56H62.8138V36.304ZM76.7983 74.64C74.0676 74.64 71.6143 74.192 69.4383 73.296C67.2623 72.3573 65.4063 71.0773 63.8703 69.456C62.3769 67.8347 61.2249 65.9787 60.4143 63.888C59.6036 61.7973 59.1983 59.6 59.1983 57.296C59.1983 54.9493 59.6036 52.7307 60.4143 50.64C61.2249 48.5493 62.3769 46.6933 63.8703 45.072C65.4063 43.4507 67.2623 42.192 69.4383 41.296C71.6143 40.3573 74.0676 39.888 76.7983 39.888C79.5289 39.888 81.9609 40.3573 84.0943 41.296C86.2703 42.192 88.1263 43.4507 89.6623 45.072C91.1983 46.6933 92.3503 48.5493 93.1183 50.64C93.9289 52.7307 94.3343 54.9493 94.3343 57.296C94.3343 59.6 93.9289 61.7973 93.1183 63.888C92.3503 65.9787 91.1983 67.8347 89.6623 69.456C88.1689 71.0773 86.3343 72.3573 84.1583 73.296C81.9823 74.192 79.5289 74.64 76.7983 74.64ZM68.0303 57.296C68.0303 59.2587 68.4143 61.008 69.1823 62.544C69.9503 64.0373 70.9956 65.2107 72.3183 66.064C73.6409 66.9173 75.1343 67.344 76.7983 67.344C78.4196 67.344 79.8916 66.9173 81.2143 66.064C82.5369 65.168 83.5823 63.9733 84.3503 62.48C85.1609 60.944 85.5663 59.1947 85.5663 57.232C85.5663 55.312 85.1609 53.584 84.3503 52.048C83.5823 50.512 82.5369 49.3173 81.2143 48.464C79.8916 47.6107 78.4196 47.184 76.7983 47.184C75.1343 47.184 73.6409 47.632 72.3183 48.528C70.9956 49.3813 69.9503 50.576 69.1823 52.112C68.4143 53.6053 68.0303 55.3333 68.0303 57.296ZM99.2433 74V64.784H106.283V74H99.2433Z" fill="black"/>
<path d="M66.8068 109.544C66.8068 113.64 65.7188 116.584 63.5428 118.376C61.3668 120.125 57.8468 121 52.9828 121H38.7748V80.872H52.9188C57.3134 80.872 60.4281 81.6187 62.2628 83.112C64.1401 84.5627 65.0788 87.08 65.0788 90.664C65.0788 93.3093 64.5881 95.3573 63.6068 96.808C62.6254 98.2587 61.0041 99.2187 58.7428 99.688C61.4308 99.9867 63.4361 100.968 64.7588 102.632C66.1241 104.253 66.8068 106.557 66.8068 109.544ZM61.2388 91.24C61.2388 88.7227 60.6201 86.9733 59.3828 85.992C58.1881 85.0107 56.0548 84.52 52.9828 84.52H42.8708V98.536H52.9828C55.8841 98.536 57.9748 97.96 59.2548 96.808C60.5774 95.656 61.2388 93.8 61.2388 91.24ZM62.8388 109.352C62.8388 106.621 62.0921 104.723 60.5988 103.656C59.1481 102.589 56.6094 102.056 52.9828 102.056H42.8708V117.288H52.9828C56.5668 117.288 59.1054 116.712 60.5988 115.56C62.0921 114.365 62.8388 112.296 62.8388 109.352ZM78.2323 78.44V121H74.2643V78.44H78.2323ZM100.06 131.368C97.9691 131.368 96.0064 131.219 94.1718 130.92C92.3798 130.664 90.9078 130.301 89.7558 129.832V126.248C90.6944 126.632 92.0811 126.952 93.9158 127.208C95.7931 127.507 97.6704 127.656 99.5478 127.656C103.004 127.656 105.393 126.952 106.716 125.544C108.081 124.136 108.764 121.597 108.764 117.928V115.752C107.185 116.776 105.478 117.544 103.644 118.056C101.809 118.568 99.9104 118.824 97.9478 118.824C93.6811 118.824 90.6091 117.651 88.7318 115.304C86.8971 112.915 85.9798 109.075 85.9798 103.784C85.9798 98.3653 87.1318 94.504 89.4358 92.2C91.7398 89.896 95.6864 88.744 101.276 88.744C103.196 88.744 105.201 88.872 107.292 89.128C109.382 89.3413 111.196 89.6187 112.732 89.96V116.904C112.732 122.28 111.772 126.035 109.852 128.168C107.974 130.301 104.71 131.368 100.06 131.368ZM101.276 92.328C96.8384 92.328 93.8304 93.16 92.2517 94.824C90.7158 96.4453 89.9478 99.432 89.9478 103.784C89.9478 107.965 90.6091 110.909 91.9318 112.616C93.2544 114.28 95.6864 115.112 99.2278 115.112C100.849 115.112 102.47 114.899 104.092 114.472C105.756 114.003 107.313 113.341 108.764 112.488V93.16C107.654 92.904 106.46 92.712 105.18 92.584C103.9 92.4133 102.598 92.328 101.276 92.328Z" fill="black"/>
</svg>
