<svg width="1200" height="675" viewBox="0 0 1200 675" fill="none" xmlns="http://www.w3.org/2000/svg">
<g clip-path="url(#clip0_3_3)">
<rect width="1200" height="675" fill="#E5E6E6"/>
<path d="M247.128 308.608H218.072V384H200.536V308.608H171.48V293.12H247.128V308.608ZM275.097 385.28C269.635 385.28 264.729 384.384 260.377 382.592C256.025 380.715 252.313 378.155 249.241 374.912C246.254 371.669 243.95 367.957 242.329 363.776C240.707 359.595 239.897 355.2 239.897 350.592C239.897 345.899 240.707 341.461 242.329 337.28C243.95 333.099 246.254 329.387 249.241 326.144C252.313 322.901 256.025 320.384 260.377 318.592C264.729 316.715 269.635 315.776 275.097 315.776C280.558 315.776 285.422 316.715 289.689 318.592C294.041 320.384 297.753 322.901 300.825 326.144C303.897 329.387 306.201 333.099 307.737 337.28C309.358 341.461 310.169 345.899 310.169 350.592C310.169 355.2 309.358 359.595 307.737 363.776C306.201 367.957 303.897 371.669 300.825 374.912C297.838 378.155 294.169 380.715 289.817 382.592C285.465 384.384 280.558 385.28 275.097 385.28ZM257.561 350.592C257.561 354.517 258.329 358.016 259.865 361.088C261.401 364.075 263.491 366.421 266.137 368.128C268.782 369.835 271.769 370.688 275.097 370.688C278.339 370.688 281.283 369.835 283.929 368.128C286.574 366.336 288.665 363.947 290.201 360.96C291.822 357.888 292.633 354.389 292.633 350.464C292.633 346.624 291.822 343.168 290.201 340.096C288.665 337.024 286.574 334.635 283.929 332.928C281.283 331.221 278.339 330.368 275.097 330.368C271.769 330.368 268.782 331.264 266.137 333.056C263.491 334.763 261.401 337.152 259.865 340.224C258.329 343.211 257.561 346.667 257.561 350.592ZM346.45 385.28C340.732 385.28 335.271 384.341 330.066 382.464C324.86 380.587 320.38 377.813 316.626 374.144L322.77 363.008C326.78 366.251 330.706 368.64 334.546 370.176C338.471 371.712 342.226 372.48 345.81 372.48C349.138 372.48 351.783 371.883 353.746 370.688C355.794 369.493 356.818 367.701 356.818 365.312C356.818 363.691 356.263 362.453 355.154 361.6C354.044 360.661 352.423 359.851 350.29 359.168C348.242 358.485 345.724 357.717 342.738 356.864C337.788 355.243 333.65 353.664 330.322 352.128C326.994 350.592 324.476 348.672 322.77 346.368C321.148 343.979 320.338 340.949 320.338 337.28C320.338 332.843 321.447 329.045 323.666 325.888C325.97 322.645 329.127 320.128 333.138 318.336C337.234 316.544 342.012 315.648 347.474 315.648C352.252 315.648 356.775 316.416 361.042 317.952C365.308 319.403 369.191 321.792 372.69 325.12L365.778 336C362.364 333.355 359.122 331.435 356.05 330.24C352.978 328.96 349.863 328.32 346.706 328.32C344.914 328.32 343.207 328.533 341.586 328.96C340.05 329.387 338.77 330.112 337.746 331.136C336.807 332.075 336.338 333.44 336.338 335.232C336.338 336.853 336.764 338.133 337.618 339.072C338.556 339.925 339.922 340.693 341.714 341.376C343.591 342.059 345.852 342.827 348.498 343.68C353.874 345.216 358.396 346.795 362.066 348.416C365.82 350.037 368.636 352.043 370.514 354.432C372.391 356.736 373.33 359.936 373.33 364.032C373.33 370.688 370.898 375.893 366.034 379.648C361.17 383.403 354.642 385.28 346.45 385.28ZM409.7 385.28C403.982 385.28 398.521 384.341 393.316 382.464C388.11 380.587 383.63 377.813 379.876 374.144L386.02 363.008C390.03 366.251 393.956 368.64 397.796 370.176C401.721 371.712 405.476 372.48 409.06 372.48C412.388 372.48 415.033 371.883 416.996 370.688C419.044 369.493 420.068 367.701 420.068 365.312C420.068 363.691 419.513 362.453 418.404 361.6C417.294 360.661 415.673 359.851 413.54 359.168C411.492 358.485 408.974 357.717 405.988 356.864C401.038 355.243 396.9 353.664 393.572 352.128C390.244 350.592 387.726 348.672 386.02 346.368C384.398 343.979 383.588 340.949 383.588 337.28C383.588 332.843 384.697 329.045 386.916 325.888C389.22 322.645 392.377 320.128 396.388 318.336C400.484 316.544 405.262 315.648 410.724 315.648C415.502 315.648 420.025 316.416 424.292 317.952C428.558 319.403 432.441 321.792 435.94 325.12L429.028 336C425.614 333.355 422.372 331.435 419.3 330.24C416.228 328.96 413.113 328.32 409.956 328.32C408.164 328.32 406.457 328.533 404.836 328.96C403.3 329.387 402.02 330.112 400.996 331.136C400.057 332.075 399.588 333.44 399.588 335.232C399.588 336.853 400.014 338.133 400.868 339.072C401.806 339.925 403.172 340.693 404.964 341.376C406.841 342.059 409.102 342.827 411.748 343.68C417.124 345.216 421.646 346.795 425.316 348.416C429.07 350.037 431.886 352.043 433.764 354.432C435.641 356.736 436.58 359.936 436.58 364.032C436.58 370.688 434.148 375.893 429.284 379.648C424.42 383.403 417.892 385.28 409.7 385.28ZM449.16 384V293.12H487.688C491.869 293.12 495.709 293.973 499.208 295.68C502.706 297.387 505.736 299.691 508.296 302.592C510.941 305.493 512.989 308.736 514.44 312.32C515.89 315.904 516.616 319.573 516.616 323.328C516.616 328.448 515.421 333.312 513.032 337.92C510.642 342.528 507.357 346.283 503.176 349.184C498.994 352.085 494.045 353.536 488.328 353.536H466.824V384H449.16ZM466.824 338.048H487.304C489.437 338.048 491.357 337.451 493.064 336.256C494.77 335.061 496.136 333.355 497.16 331.136C498.184 328.832 498.696 326.229 498.696 323.328C498.696 320.171 498.098 317.483 496.904 315.264C495.794 313.045 494.301 311.381 492.424 310.272C490.632 309.163 488.669 308.608 486.536 308.608H466.824V338.048ZM556.847 385.28C551.385 385.28 546.479 384.384 542.127 382.592C537.775 380.715 534.063 378.155 530.991 374.912C528.004 371.669 525.7 367.957 524.079 363.776C522.457 359.595 521.647 355.2 521.647 350.592C521.647 345.899 522.457 341.461 524.079 337.28C525.7 333.099 528.004 329.387 530.991 326.144C534.063 322.901 537.775 320.384 542.127 318.592C546.479 316.715 551.385 315.776 556.847 315.776C562.308 315.776 567.172 316.715 571.439 318.592C575.791 320.384 579.503 322.901 582.575 326.144C585.647 329.387 587.951 333.099 589.487 337.28C591.108 341.461 591.919 345.899 591.919 350.592C591.919 355.2 591.108 359.595 589.487 363.776C587.951 367.957 585.647 371.669 582.575 374.912C579.588 378.155 575.919 380.715 571.567 382.592C567.215 384.384 562.308 385.28 556.847 385.28ZM539.311 350.592C539.311 354.517 540.079 358.016 541.615 361.088C543.151 364.075 545.241 366.421 547.887 368.128C550.532 369.835 553.519 370.688 556.847 370.688C560.089 370.688 563.033 369.835 565.679 368.128C568.324 366.336 570.415 363.947 571.951 360.96C573.572 357.888 574.383 354.389 574.383 350.464C574.383 346.624 573.572 343.168 571.951 340.096C570.415 337.024 568.324 334.635 565.679 332.928C563.033 331.221 560.089 330.368 556.847 330.368C553.519 330.368 550.532 331.264 547.887 333.056C545.241 334.763 543.151 337.152 541.615 340.224C540.079 343.211 539.311 346.667 539.311 350.592ZM628.2 385.28C622.482 385.28 617.021 384.341 611.816 382.464C606.61 380.587 602.13 377.813 598.376 374.144L604.52 363.008C608.53 366.251 612.456 368.64 616.296 370.176C620.221 371.712 623.976 372.48 627.56 372.48C630.888 372.48 633.533 371.883 635.496 370.688C637.544 369.493 638.568 367.701 638.568 365.312C638.568 363.691 638.013 362.453 636.904 361.6C635.794 360.661 634.173 359.851 632.04 359.168C629.992 358.485 627.474 357.717 624.488 356.864C619.538 355.243 615.4 353.664 612.072 352.128C608.744 350.592 606.226 348.672 604.52 346.368C602.898 343.979 602.088 340.949 602.088 337.28C602.088 332.843 603.197 329.045 605.416 325.888C607.72 322.645 610.877 320.128 614.888 318.336C618.984 316.544 623.762 315.648 629.224 315.648C634.002 315.648 638.525 316.416 642.792 317.952C647.058 319.403 650.941 321.792 654.44 325.12L647.528 336C644.114 333.355 640.872 331.435 637.8 330.24C634.728 328.96 631.613 328.32 628.456 328.32C626.664 328.32 624.957 328.533 623.336 328.96C621.8 329.387 620.52 330.112 619.496 331.136C618.557 332.075 618.088 333.44 618.088 335.232C618.088 336.853 618.514 338.133 619.368 339.072C620.306 339.925 621.672 340.693 623.464 341.376C625.341 342.059 627.602 342.827 630.248 343.68C635.624 345.216 640.146 346.795 643.816 348.416C647.57 350.037 650.386 352.043 652.264 354.432C654.141 356.736 655.08 359.936 655.08 364.032C655.08 370.688 652.648 375.893 647.784 379.648C642.92 383.403 636.392 385.28 628.2 385.28ZM706.563 380.544C705.112 381.141 703.363 381.824 701.315 382.592C699.267 383.36 697.048 383.957 694.659 384.384C692.355 384.896 690.008 385.152 687.619 385.152C684.461 385.152 681.56 384.597 678.915 383.488C676.269 382.379 674.136 380.629 672.515 378.24C670.979 375.765 670.211 372.565 670.211 368.64V330.112H661.379V316.928H670.211V295.168H687.363V316.928H701.443V330.112H687.363V362.88C687.448 365.184 688.088 366.848 689.283 367.872C690.477 368.896 691.971 369.408 693.763 369.408C695.555 369.408 697.304 369.109 699.011 368.512C700.717 367.915 702.083 367.403 703.107 366.976L706.563 380.544ZM740.2 385.28C734.482 385.28 729.021 384.341 723.816 382.464C718.61 380.587 714.13 377.813 710.376 374.144L716.52 363.008C720.53 366.251 724.456 368.64 728.296 370.176C732.221 371.712 735.976 372.48 739.56 372.48C742.888 372.48 745.533 371.883 747.496 370.688C749.544 369.493 750.568 367.701 750.568 365.312C750.568 363.691 750.013 362.453 748.904 361.6C747.794 360.661 746.173 359.851 744.04 359.168C741.992 358.485 739.474 357.717 736.488 356.864C731.538 355.243 727.4 353.664 724.072 352.128C720.744 350.592 718.226 348.672 716.52 346.368C714.898 343.979 714.088 340.949 714.088 337.28C714.088 332.843 715.197 329.045 717.416 325.888C719.72 322.645 722.877 320.128 726.888 318.336C730.984 316.544 735.762 315.648 741.224 315.648C746.002 315.648 750.525 316.416 754.792 317.952C759.058 319.403 762.941 321.792 766.44 325.12L759.528 336C756.114 333.355 752.872 331.435 749.8 330.24C746.728 328.96 743.613 328.32 740.456 328.32C738.664 328.32 736.957 328.533 735.336 328.96C733.8 329.387 732.52 330.112 731.496 331.136C730.557 332.075 730.088 333.44 730.088 335.232C730.088 336.853 730.514 338.133 731.368 339.072C732.306 339.925 733.672 340.693 735.464 341.376C737.341 342.059 739.602 342.827 742.248 343.68C747.624 345.216 752.146 346.795 755.816 348.416C759.57 350.037 762.386 352.043 764.264 354.432C766.141 356.736 767.08 359.936 767.08 364.032C767.08 370.688 764.648 375.893 759.784 379.648C754.92 383.403 748.392 385.28 740.2 385.28ZM787.322 384H776.826V373.376H787.322V384ZM859.364 361.088C859.364 369.28 857.188 375.168 852.836 378.752C848.484 382.251 841.444 384 831.716 384H803.3V303.744H831.588C840.377 303.744 846.606 305.237 850.276 308.224C854.03 311.125 855.908 316.16 855.908 323.328C855.908 328.619 854.926 332.715 852.964 335.616C851.001 338.517 847.758 340.437 843.236 341.376C848.612 341.973 852.622 343.936 855.268 347.264C857.998 350.507 859.364 355.115 859.364 361.088ZM848.228 324.48C848.228 319.445 846.99 315.947 844.516 313.984C842.126 312.021 837.86 311.04 831.716 311.04H811.492V339.072H831.716C837.518 339.072 841.7 337.92 844.26 335.616C846.905 333.312 848.228 329.6 848.228 324.48ZM851.428 360.704C851.428 355.243 849.934 351.445 846.948 349.312C844.046 347.179 838.969 346.112 831.716 346.112H811.492V376.576H831.716C838.884 376.576 843.961 375.424 846.948 373.12C849.934 370.731 851.428 366.592 851.428 360.704ZM882.215 298.88V384H874.279V298.88H882.215ZM955.054 352.256C955.054 364.203 952.92 372.651 948.654 377.6C944.387 382.464 937.006 384.896 926.51 384.896C915.502 384.896 907.95 382.592 903.854 377.984C899.758 373.291 897.71 364.715 897.71 352.256C897.71 340.224 899.843 331.776 904.11 326.912C908.462 321.963 915.928 319.488 926.51 319.488C937.432 319.488 944.899 321.835 948.91 326.528C953.006 331.136 955.054 339.712 955.054 352.256ZM905.646 352.128C905.646 362.368 907.011 369.195 909.742 372.608C912.558 375.936 918.147 377.6 926.51 377.6C934.531 377.6 939.95 375.808 942.766 372.224C945.667 368.64 947.118 361.941 947.118 352.128C947.118 341.888 945.752 335.104 943.022 331.776C940.291 328.363 934.787 326.656 926.51 326.656C918.403 326.656 912.899 328.448 909.998 332.032C907.096 335.531 905.646 342.229 905.646 352.128ZM995.87 404.736C991.688 404.736 987.763 404.437 984.094 403.84C980.51 403.328 977.566 402.603 975.262 401.664V394.496C977.139 395.264 979.912 395.904 983.582 396.416C987.336 397.013 991.091 397.312 994.846 397.312C1001.76 397.312 1006.54 395.904 1009.18 393.088C1011.91 390.272 1013.28 385.195 1013.28 377.856V373.504C1010.12 375.552 1006.71 377.088 1003.04 378.112C999.368 379.136 995.571 379.648 991.646 379.648C983.112 379.648 976.968 377.301 973.214 372.608C969.544 367.829 967.71 360.149 967.71 349.568C967.71 338.731 970.014 331.008 974.622 326.4C979.23 321.792 987.123 319.488 998.302 319.488C1002.14 319.488 1006.15 319.744 1010.33 320.256C1014.51 320.683 1018.14 321.237 1021.21 321.92V375.808C1021.21 386.56 1019.29 394.069 1015.45 398.336C1011.7 402.603 1005.17 404.736 995.87 404.736ZM998.302 326.656C989.427 326.656 983.411 328.32 980.253 331.648C977.182 334.891 975.646 340.864 975.646 349.568C975.646 357.931 976.968 363.819 979.614 367.232C982.259 370.56 987.123 372.224 994.206 372.224C997.448 372.224 1000.69 371.797 1003.93 370.944C1007.26 370.005 1010.38 368.683 1013.28 366.976V328.32C1011.06 327.808 1008.67 327.424 1006.11 327.168C1003.55 326.827 1000.95 326.656 998.302 326.656Z" fill="black"/>
</g>
<defs>
<clipPath id="clip0_3_3">
<rect width="1200" height="675" fill="white"/>
</clipPath>
</defs>
</svg>
